<svg width="21" height="22" viewBox="0 0 21 22" fill="none" xmlns="http://www.w3.org/2000/svg">
<path d="M0.0693359 10.8145C0.0693359 7.73503 1.05046 5.22852 3.0127 3.29492C4.98926 1.34701 7.48861 0.373047 10.5107 0.373047C13.5329 0.373047 16.0251 1.34701 17.9873 3.29492C19.9639 5.22852 20.9521 7.73503 20.9521 10.8145C20.9521 13.8796 19.9639 16.3861 17.9873 18.334C16.0107 20.2676 13.5186 21.2344 10.5107 21.2344C7.50293 21.2344 5.01074 20.2676 3.03418 18.334C1.05762 16.3861 0.0693359 13.8796 0.0693359 10.8145ZM7.20215 7.09766H9.41504V18.2695H12.1436V3.03711H10.1885C9.85905 4.2832 8.86361 4.98503 7.20215 5.14258V7.09766Z" fill="black"/>
</svg>
