<svg width="21" height="22" viewBox="0 0 21 22" fill="none" xmlns="http://www.w3.org/2000/svg">
<path d="M0.0693359 10.8145C0.0693359 7.73503 1.05046 5.22852 3.0127 3.29492C4.98926 1.34701 7.48861 0.373047 10.5107 0.373047C13.5329 0.373047 16.0251 1.34701 17.9873 3.29492C19.9639 5.22852 20.9521 7.73503 20.9521 10.8145C20.9521 13.8796 19.9639 16.3861 17.9873 18.334C16.0107 20.2676 13.5186 21.2344 10.5107 21.2344C7.50293 21.2344 5.01074 20.2676 3.03418 18.334C1.05762 16.3861 0.0693359 13.8796 0.0693359 10.8145ZM6.68652 14.0586C6.70085 14.7174 6.7653 15.2975 6.87988 15.7988C6.99447 16.2858 7.18066 16.7585 7.43848 17.2168C7.71061 17.6751 8.11165 18.026 8.6416 18.2695C9.17155 18.513 9.82324 18.6348 10.5967 18.6348C11.8141 18.6348 12.7666 18.2767 13.4541 17.5605C14.1559 16.8301 14.5068 15.7559 14.5068 14.3379C14.5068 13.2493 14.3564 12.4043 14.0557 11.8027C13.7549 11.1868 13.3252 10.6999 12.7666 10.3418C13.8122 9.53971 14.335 8.28646 14.335 6.58203C14.335 5.26432 13.984 4.26888 13.2822 3.5957C12.5947 2.92253 11.6709 2.58594 10.5107 2.58594C10.0524 2.58594 9.62272 2.65039 9.22168 2.7793C8.83496 2.9082 8.43392 3.13737 8.01855 3.4668C7.61751 3.7819 7.29525 4.27604 7.05176 4.94922C6.80827 5.6224 6.68652 6.44596 6.68652 7.41992H9.02832C9.12858 5.87305 9.58691 5.09961 10.4033 5.09961C11.3486 5.09961 11.8213 5.69401 11.8213 6.88281C11.8213 7.45573 11.7425 7.92122 11.585 8.2793C11.4417 8.63737 11.2126 8.88802 10.8975 9.03125C10.5967 9.16016 10.3317 9.24609 10.1025 9.28906C9.87337 9.31771 9.55111 9.33919 9.13574 9.35352V11.6309C9.55111 11.6309 9.89486 11.6595 10.167 11.7168C10.4391 11.7598 10.7256 11.86 11.0264 12.0176C11.3415 12.1751 11.5706 12.4329 11.7139 12.791C11.8714 13.1348 11.9502 13.5859 11.9502 14.1445C11.9502 14.8893 11.8356 15.4193 11.6064 15.7344C11.3773 16.0495 11.0049 16.207 10.4893 16.207C9.62988 16.207 9.17155 15.4909 9.11426 14.0586H6.68652Z" fill="black"/>
</svg>
