<svg width="21" height="22" viewBox="0 0 21 22" fill="none" xmlns="http://www.w3.org/2000/svg">
<path d="M0.0693359 10.8145C0.0693359 7.73503 1.05046 5.22852 3.0127 3.29492C4.98926 1.34701 7.48861 0.373047 10.5107 0.373047C13.5329 0.373047 16.0251 1.34701 17.9873 3.29492C19.9639 5.22852 20.9521 7.73503 20.9521 10.8145C20.9521 13.8796 19.9639 16.3861 17.9873 18.334C16.0107 20.2676 13.5186 21.2344 10.5107 21.2344C7.50293 21.2344 5.01074 20.2676 3.03418 18.334C1.05762 16.3861 0.0693359 13.8796 0.0693359 10.8145ZM6.34277 18.2266H14.1846V15.7988H9.82324C9.86621 15.7415 10.0667 15.4766 10.4248 15.0039C10.7829 14.5312 11.012 14.2233 11.1123 14.0801C11.2269 13.9225 11.4489 13.6074 11.7783 13.1348C12.1221 12.6621 12.3584 12.304 12.4873 12.0605C12.6305 11.8171 12.8311 11.4733 13.0889 11.0293C13.361 10.571 13.5544 10.1842 13.6689 9.86914C13.7979 9.53971 13.9339 9.16732 14.0771 8.75195C14.2347 8.33659 14.3421 7.93555 14.3994 7.54883C14.4567 7.14779 14.4854 6.75391 14.4854 6.36719C14.4854 5.29297 14.1488 4.39779 13.4756 3.68164C12.8167 2.95117 11.9144 2.58594 10.7686 2.58594C10.3962 2.58594 10.0381 2.62174 9.69434 2.69336C9.35059 2.76497 8.97819 2.91536 8.57715 3.14453C8.19043 3.3737 7.85384 3.67448 7.56738 4.04688C7.28092 4.40495 7.03743 4.91341 6.83691 5.57227C6.65072 6.2168 6.55046 6.96875 6.53613 7.82812H9.07129C9.09993 7.42708 9.13574 7.10482 9.17871 6.86133C9.22168 6.61784 9.29329 6.3457 9.39355 6.04492C9.49382 5.72982 9.63704 5.49349 9.82324 5.33594C10.0238 5.17839 10.2673 5.09961 10.5537 5.09961C11.4847 5.09961 11.9502 5.60091 11.9502 6.60352C11.9502 7.86393 11.3558 9.40365 10.167 11.2227C8.99251 13.0273 7.71777 14.6172 6.34277 15.9922V18.2266Z" fill="black"/>
</svg>
