<?xml version="1.0" encoding="UTF-8"?>
<svg id="_레이어_1" data-name="레이어_1" xmlns="http://www.w3.org/2000/svg" version="1.1" viewBox="0 0 40 40">
  <!-- Generator: Adobe Illustrator 29.6.0, SVG Export Plug-In . SVG Version: 2.1.1 Build 207)  -->
  <defs>
    <style>
      .st0 {
        fill: #cecece;
      }
    </style>
  </defs>
  <path class="st0" d="M20,1h0c10.5,0,19,8.5,19,19h0c0,10.5-8.5,19-19,19h0C9.5,39,1,30.5,1,20h0C1,9.5,9.5,1,20,1Z"/>
  <path d="M20,40C9,40,0,31,0,20S9,0,20,0s20,9,20,20-9,20-20,20ZM20,2C10.1,2,2,10.1,2,20s8.1,18,18,18,18-8.1,18-18S29.9,2,20,2Z"/>
  <polygon points="16.2 30.7 14.8 29.3 25 20 14.8 10.7 16.2 9.3 28 20 16.2 30.7"/>
</svg>